Coordinates
version=1
nRows=10
nColumns=40
inDegrees=yes
endheader
time	pelvis_tilt	pelvis_list	pelvis_rotation	pelvis_tx	pelvis_ty	pelvis_tz	hip_flexion_r	hip_adduction_r	hip_rotation_r	knee_angle_r	knee_angle_r_beta	ankle_angle_r	subtalar_angle_r	mtp_angle_r	hip_flexion_l	hip_adduction_l	hip_rotation_l	knee_angle_l	knee_angle_l_beta	ankle_angle_l	subtalar_angle_l	mtp_angle_l	lumbar_extension	lumbar_bending	lumbar_rotation	arm_flex_r	arm_add_r	arm_rot_r	elbow_flex_r	pro_sup_r	wrist_flex_r	wrist_dev_r	arm_flex_l	arm_add_l	arm_rot_l	elbow_flex_l	pro_sup_l	wrist_flex_l	wrist_dev_l
      2.78000000	    -17.69222910	      0.40007026	     -1.75852369	      0.97218279	      1.01867193	     -0.36338690	     56.36952697	     -1.43946752	      1.99991175	     83.95713534	      1.46532844	      1.49756372	      0.00000000	      0.00000000	      3.48972124	      5.61084073	     -2.30884018	     22.85554203	      0.39890446	     -9.88622315	      0.00000000	      0.00000000	      6.57728768	      1.09632183	     -9.97591544	    -42.48601623	    -24.76889847	     -8.31399159	     97.87092465	     62.64381927	      0.00000000	      0.00000000	    -28.69705462	    -11.77339899	     -9.74790003	    128.84538499	     57.01271747	      0.00000000	      0.00000000
      2.79000000	    -17.97618417	      0.97839836	     -2.12159487	      0.97350993	      1.02438706	     -0.36376292	     57.21041023	     -1.90840034	      1.44339380	     78.60283173	      1.37187822	      1.78001034	      0.00000000	      0.00000000	      1.79206918	      6.05817792	     -2.80600823	     22.46367861	      0.39206515	    -11.56631002	      0.00000000	      0.00000000	      7.07660624	      0.72506572	    -10.31392085	    -43.82798241	    -24.76195989	     -8.80752897	     98.69169510	     62.54117836	      0.00000000	      0.00000000	    -29.35870257	    -12.25164032	     -9.88451704	    130.21776609	     57.03503059	      0.00000000	      0.00000000
      2.80000000	    -18.40625720	     -0.68684764	     -3.00708322	      0.97785340	      1.03091596	     -0.36277573	     56.93987245	     -0.06283652	     -0.61805945	     71.98223361	      1.25632698	      1.88194808	      0.00000000	      0.00000000	     -1.12078436	      4.02963729	     -3.61384312	     18.67929316	      0.32601517	    -20.71149263	      0.00000000	      0.00000000	      8.19459640	      3.11686131	    -10.16314419	    -45.75946386	    -24.39630352	    -10.73343664	    100.82463195	     61.97173380	      0.00000000	      0.00000000	    -29.90625553	    -11.85469447	     -9.38096838	    132.81382233	     57.09996048	      0.00000000	      0.00000000
      2.81000000	    -18.60882597	      0.29529308	     -3.22519835	      0.97942806	      1.03533946	     -0.36304670	     57.16138453	     -0.85902740	     -1.35037871	     66.27753892	      1.15676127	      1.97967614	      0.00000000	      0.00000000	     -2.47579639	      4.91371368	     -3.98890836	     18.58756562	      0.32441422	    -22.25279587	      0.00000000	      0.00000000	      8.40731684	      2.25899284	    -10.23989414	    -47.08123986	    -24.19970160	    -11.08232320	    101.64097019	     61.83330816	      0.00000000	      0.00000000	    -30.77967190	    -12.58801642	     -9.56401835	    133.97764701	     57.12195294	      0.00000000	      0.00000000
      2.82000000	    -18.84875934	      0.88657728	     -3.40636084	      0.98162287	      1.03929890	     -0.36238465	     56.65906651	     -0.94437188	     -2.03356208	     59.54522408	      1.03926021	      1.83737602	      0.00000000	      0.00000000	     -3.72702508	      5.34846107	     -3.95116553	     18.45558289	      0.32211069	    -25.42428317	      0.00000000	      0.00000000	      9.08059006	      1.66009462	    -10.42964866	    -48.19614182	    -23.50656243	    -11.54685958	    103.02420668	     61.66367959	      0.00000000	      0.00000000	    -31.61063169	    -13.17010144	     -9.67650451	    135.92413086	     57.18442507	      0.00000000	      0.00000000
      2.83000000	    -18.98550120	      1.34152186	     -3.69177002	      0.98348604	      1.04243175	     -0.36176053	     55.99435628	     -0.74971273	     -2.73309991	     53.02491582	      0.92545937	      1.37782340	      0.00000000	      0.00000000	     -4.79661184	      5.70353329	     -3.35038683	     18.78270218	      0.32782000	    -28.72013866	      0.00000000	      0.00000000	      9.40504622	      1.36201273	    -10.45708584	    -49.12619507	    -22.94344483	    -12.10862081	    104.35686091	     61.44671134	      0.00000000	      0.00000000	    -32.54430372	    -13.72882008	     -9.71582804	    137.54232742	     57.22047445	      0.00000000	      0.00000000
      2.84000000	    -18.95112102	      1.74929647	     -4.04263163	      0.98506316	      1.04468709	     -0.36010425	     54.94853276	     -0.23142916	     -3.21175436	     46.53183983	      0.81213381	      0.73425629	      0.00000000	      0.00000000	     -5.71384356	      6.05190835	     -2.12885356	     19.79400521	      0.34547056	    -31.25447125	      0.00000000	      0.00000000	      9.50605756	      0.97092193	    -10.53456143	    -49.81530440	    -22.24362827	    -12.58531072	    105.64448857	     61.18950070	      0.00000000	      0.00000000	    -33.37286624	    -14.30696596	     -9.65499361	    138.73235861	     57.21664886	      0.00000000	      0.00000000
      2.85000000	    -18.52972907	      0.23689760	     -3.90193055	      0.98562163	      1.04850296	     -0.35934127	     52.11303576	      1.99763307	     -2.84264238	     37.98454948	      0.66295545	     -1.50444417	      0.00000000	      0.00000000	     -6.54690563	      4.45932890	      0.61443136	     22.20708742	      0.38758679	    -32.11832002	      0.00000000	      0.00000000	      8.88325257	      2.74808670	    -10.85300898	    -49.83911544	    -21.34639349	    -13.55872011	    106.35417053	     60.12879238	      0.00000000	      0.00000000	    -32.62880158	    -14.74289064	     -8.59103387	    138.56442303	     56.95370232	      0.00000000	      0.00000000
      2.86000000	    -18.20187571	      1.21579466	     -4.71467875	      0.98792729	      1.04784092	     -0.35768317	     51.49751589	      2.10230038	     -3.47865140	     34.45578109	      0.60136683	     -1.11923922	      0.00000000	      0.00000000	     -7.39443263	      5.67930089	      1.51716829	     24.37871316	      0.42548881	    -32.08379434	      0.00000000	      0.00000000	      8.73211056	      1.85770053	    -10.07212453	    -50.28118638	    -21.07181928	    -13.64851639	    107.13142231	     59.95512853	      0.00000000	      0.00000000	    -34.03767176	    -15.39596891	     -8.46687794	    138.81127097	     56.90054838	      0.00000000	      0.00000000
      2.87000000	    -17.53654938	      1.76613455	     -4.88475949	      0.98670343	      1.04790716	     -0.35714257	     49.10282712	      2.62652774	     -1.65511482	     28.07635427	      0.49002482	     -0.67503265	      0.00000000	      0.00000000	     -7.00351983	      6.50380212	      3.45329960	     29.45010976	      0.51400138	    -31.42679333	      0.00000000	      0.00000000	      7.40446674	      1.33314605	     -9.84457824	    -49.97884608	    -20.28185337	    -13.53437271	    108.53182357	     59.62781171	      0.00000000	      0.00000000	    -34.32948655	    -16.37528652	     -7.93483388	    138.91562155	     56.77617671	      0.00000000	      0.00000000
